<svg width="20" height="20" viewBox="0 0 20 20" fill="none" xmlns="http://www.w3.org/2000/svg">
<path d="M10.5417 1.86699C10.3908 1.7379 10.1987 1.66698 10 1.66699H4.16671C3.94569 1.66699 3.73373 1.75479 3.57745 1.91107C3.42117 2.06735 3.33337 2.27931 3.33337 2.50033V17.5003C3.33337 17.7213 3.42117 17.9333 3.57745 18.0896C3.73373 18.2459 3.94569 18.3337 4.16671 18.3337H15.8334C16.0544 18.3337 16.2664 18.2459 16.4226 18.0896C16.5789 17.9333 16.6667 17.7213 16.6667 17.5003V7.50033C16.6667 7.37996 16.6406 7.26102 16.5903 7.15169C16.5399 7.04236 16.4665 6.94523 16.375 6.86699L10.5417 1.86699ZM10.8334 4.30866L13.5834 6.66699H10.8334V4.30866ZM15 16.667H5.00004V3.33366H9.16671V7.50033C9.16671 7.72134 9.25451 7.9333 9.41079 8.08958C9.56707 8.24586 9.77903 8.33366 10 8.33366H15V16.667Z" fill="#464255"/>
</svg>
