<svg width="20" height="20" viewBox="0 0 20 20" fill="none" xmlns="http://www.w3.org/2000/svg">
<path d="M2.49997 18.3334H5.83331C5.94298 18.3341 6.0517 18.3131 6.15323 18.2716C6.25476 18.2301 6.34711 18.169 6.42497 18.0918L16.425 8.09178C16.5031 8.01431 16.5651 7.92214 16.6074 7.82059C16.6497 7.71904 16.6715 7.61012 16.6715 7.50011C16.6715 7.3901 16.6497 7.28118 16.6074 7.17963C16.5651 7.07808 16.5031 6.98591 16.425 6.90845L13.0916 3.57511C13.0142 3.497 12.922 3.43501 12.8205 3.3927C12.7189 3.3504 12.61 3.32861 12.5 3.32861C12.39 3.32861 12.281 3.3504 12.1795 3.3927C12.0779 3.43501 11.9858 3.497 11.9083 3.57511L1.90831 13.5751C1.83107 13.653 1.76997 13.7453 1.7285 13.8469C1.68703 13.9484 1.66601 14.0571 1.66664 14.1668V17.5001C1.66664 17.7211 1.75444 17.9331 1.91072 18.0894C2.067 18.2457 2.27896 18.3334 2.49997 18.3334ZM3.33331 14.5084L12.5 5.34178L14.6583 7.50011L5.49164 16.6668H3.33331V14.5084Z" fill="#464255"/>
<path d="M14.7584 1.90841C14.6807 1.83071 14.5885 1.76907 14.487 1.72702C14.3854 1.68497 14.2766 1.66333 14.1668 1.66333C13.9448 1.66333 13.732 1.75149 13.5751 1.90841C13.4182 2.06533 13.33 2.27816 13.33 2.50007C13.33 2.72199 13.4182 2.93482 13.5751 3.09174L16.9084 6.42508C16.9859 6.50318 17.0781 6.56518 17.1796 6.60748C17.2812 6.64979 17.3901 6.67157 17.5001 6.67157C17.6101 6.67157 17.719 6.64979 17.8206 6.60748C17.9221 6.56518 18.0143 6.50318 18.0918 6.42508C18.1699 6.34761 18.2319 6.25544 18.2742 6.15389C18.3165 6.05234 18.3383 5.94342 18.3383 5.83341C18.3383 5.7234 18.3165 5.61448 18.2742 5.51293C18.2319 5.41138 18.1699 5.31921 18.0918 5.24174L14.7584 1.90841Z" fill="#464255"/>
</svg>
