<svg width="20" height="20" viewBox="0 0 20 20" fill="none" xmlns="http://www.w3.org/2000/svg">
<path d="M12.975 9.72471C13.688 9.11628 14.1974 8.30384 14.4344 7.39693C14.6714 6.49003 14.6246 5.53226 14.3004 4.65276C13.9761 3.77326 13.39 3.01432 12.6211 2.47825C11.8521 1.94219 10.9373 1.65479 9.99996 1.65479C9.0626 1.65479 8.14777 1.94219 7.37882 2.47825C6.60987 3.01432 6.02377 3.77326 5.69954 4.65276C5.37531 5.53226 5.32854 6.49003 5.56554 7.39693C5.80253 8.30384 6.3119 9.11628 7.02496 9.72471C5.45018 10.3266 4.09498 11.3919 3.13831 12.78C2.18164 14.1682 1.66849 15.8138 1.66663 17.4997C1.66663 17.7207 1.75442 17.9327 1.9107 18.089C2.06698 18.2452 2.27895 18.333 2.49996 18.333C2.72097 18.333 2.93293 18.2452 3.08922 18.089C3.2455 17.9327 3.33329 17.7207 3.33329 17.4997C3.33329 15.7316 4.03567 14.0359 5.28591 12.7857C6.53616 11.5354 8.23185 10.833 9.99996 10.833C11.7681 10.833 13.4638 11.5354 14.714 12.7857C15.9642 14.0359 16.6666 15.7316 16.6666 17.4997C16.6666 17.7207 16.7544 17.9327 16.9107 18.089C17.067 18.2452 17.2789 18.333 17.5 18.333C17.721 18.333 17.9329 18.2452 18.0892 18.089C18.2455 17.9327 18.3333 17.7207 18.3333 17.4997C18.3314 15.8138 17.8183 14.1682 16.8616 12.78C15.9049 11.3919 14.5497 10.3266 12.975 9.72471ZM9.99996 9.16638C9.4231 9.16638 8.85919 8.99532 8.37955 8.67483C7.8999 8.35434 7.52607 7.89882 7.30531 7.36587C7.08456 6.83292 7.0268 6.24648 7.13934 5.6807C7.25188 5.11492 7.52966 4.59522 7.93757 4.18732C8.34547 3.77941 8.86517 3.50163 9.43095 3.38909C9.99673 3.27655 10.5832 3.33431 11.1161 3.55506C11.6491 3.77582 12.1046 4.14965 12.4251 4.6293C12.7456 5.10894 12.9166 5.67285 12.9166 6.24971C12.9166 7.02326 12.6093 7.76512 12.0624 8.31211C11.5154 8.85909 10.7735 9.16638 9.99996 9.16638Z" fill="#464255"/>
</svg>
