<svg width="23" height="23" viewBox="0 0 23 23" fill="none" xmlns="http://www.w3.org/2000/svg">
<path d="M9.61111 16.4167L18.1788 7.84896L16.4774 6.14757L9.61111 13.0139L6.14757 9.55035L4.44618 11.2517L9.61111 16.4167ZM2.80556 22.25C2.13715 22.25 1.56496 22.012 1.08898 21.536C0.612992 21.06 0.375 20.4878 0.375 19.8194V2.80556C0.375 2.13715 0.612992 1.56496 1.08898 1.08898C1.56496 0.612992 2.13715 0.375 2.80556 0.375H19.8194C20.4878 0.375 21.06 0.612992 21.536 1.08898C22.012 1.56496 22.25 2.13715 22.25 2.80556V19.8194C22.25 20.4878 22.012 21.06 21.536 21.536C21.06 22.012 20.4878 22.25 19.8194 22.25H2.80556Z" fill="#4CAC3E"/>
</svg>
