<svg width="18" height="22" viewBox="0 0 18 22" fill="none" xmlns="http://www.w3.org/2000/svg">
<path d="M8.99992 11.0013C9.59575 11.0013 10.1058 10.7892 10.5301 10.3648C10.9544 9.94054 11.1666 9.43047 11.1666 8.83464C11.1666 8.2388 10.9544 7.72873 10.5301 7.30443C10.1058 6.88012 9.59575 6.66797 8.99992 6.66797C8.40408 6.66797 7.89402 6.88012 7.46971 7.30443C7.0454 7.72873 6.83325 8.2388 6.83325 8.83464C6.83325 9.43047 7.0454 9.94054 7.46971 10.3648C7.89402 10.7892 8.40408 11.0013 8.99992 11.0013ZM8.99992 18.9638C11.2027 16.9416 12.8367 15.1044 13.902 13.4523C14.9673 11.8003 15.4999 10.3332 15.4999 9.0513C15.4999 7.08325 14.8725 5.47179 13.6176 4.21693C12.3628 2.96207 10.8235 2.33464 8.99992 2.33464C7.17631 2.33464 5.63707 2.96207 4.38221 4.21693C3.12735 5.47179 2.49992 7.08325 2.49992 9.0513C2.49992 10.3332 3.03256 11.8003 4.09784 13.4523C5.16311 15.1044 6.79714 16.9416 8.99992 18.9638ZM8.99992 21.8346C6.09297 19.361 3.92179 17.0635 2.48638 14.9419C1.05096 12.8204 0.333252 10.8569 0.333252 9.0513C0.333252 6.34297 1.20443 4.18533 2.94679 2.57839C4.68915 0.971441 6.70686 0.167969 8.99992 0.167969C11.293 0.167969 13.3107 0.971441 15.053 2.57839C16.7954 4.18533 17.6666 6.34297 17.6666 9.0513C17.6666 10.8569 16.9489 12.8204 15.5135 14.9419C14.078 17.0635 11.9069 19.361 8.99992 21.8346Z" fill="#2D9CDB"/>
</svg>
