<svg width="20" height="20" viewBox="0 0 20 20" fill="none" xmlns="http://www.w3.org/2000/svg">
<path d="M17.5002 4.16667H2.5002C2.02798 4.16667 1.66687 3.80555 1.66687 3.33333C1.66687 2.86111 2.02798 2.5 2.5002 2.5H17.5002C17.9724 2.5 18.3335 2.86111 18.3335 3.33333C18.3335 3.80555 17.9724 4.16667 17.5002 4.16667Z" fill="#464255"/>
<path d="M12.5002 8.611H2.5002C2.02798 8.611 1.66687 8.24989 1.66687 7.77767C1.66687 7.30545 2.02798 6.94434 2.5002 6.94434H12.5002C12.9724 6.94434 13.3335 7.30545 13.3335 7.77767C13.3335 8.24989 12.9724 8.611 12.5002 8.611Z" fill="#464255"/>
<path d="M17.5002 13.0553H2.5002C2.02798 13.0553 1.66687 12.6942 1.66687 12.222C1.66687 11.7498 2.02798 11.3887 2.5002 11.3887H17.5002C17.9724 11.3887 18.3335 11.7498 18.3335 12.222C18.3335 12.6942 17.9724 13.0553 17.5002 13.0553Z" fill="#464255"/>
<path d="M12.5002 17.4997H2.5002C2.02798 17.4997 1.66687 17.1386 1.66687 16.6663C1.66687 16.1941 2.02798 15.833 2.5002 15.833H12.5002C12.9724 15.833 13.3335 16.1941 13.3335 16.6663C13.3335 17.1386 12.9724 17.4997 12.5002 17.4997Z" fill="#464255"/>
</svg>
