<svg width="14" height="15" viewBox="0 0 14 15" fill="none" xmlns="http://www.w3.org/2000/svg">
<path d="M12.7125 14.25C11.1 14.25 9.52813 13.8707 7.99688 13.112C6.46563 12.3533 5.10938 11.3505 3.92813 10.1036C2.74688 8.85677 1.79688 7.42517 1.07812 5.80885C0.359375 4.19253 0 2.53333 0 0.83125C0 0.59375 0.075 0.395833 0.225 0.2375C0.375 0.0791667 0.5625 0 0.7875 0H3.825C4 0 4.15625 0.059375 4.29375 0.178125C4.43125 0.296875 4.5125 0.448611 4.5375 0.633333L5.025 3.40417C5.05 3.58889 5.04688 3.75712 5.01562 3.90885C4.98438 4.06059 4.9125 4.19583 4.8 4.31458L2.98125 6.25417C3.50625 7.20417 4.16563 8.09479 4.95938 8.92604C5.75313 9.75729 6.625 10.4764 7.575 11.0833L9.3375 9.22292C9.45 9.10417 9.59688 9.0151 9.77813 8.95573C9.95938 8.89635 10.1375 8.87986 10.3125 8.90625L12.9 9.46042C13.075 9.5 13.2187 9.58906 13.3312 9.7276C13.4437 9.86615 13.5 10.0278 13.5 10.2125V13.4188C13.5 13.6563 13.425 13.8542 13.275 14.0125C13.125 14.1708 12.9375 14.25 12.7125 14.25ZM2.26875 4.75L3.50625 3.44375L3.1875 1.58333H1.51875C1.58125 2.12431 1.66875 2.65868 1.78125 3.18646C1.89375 3.71424 2.05625 4.23542 2.26875 4.75ZM8.98125 11.8354C9.46875 12.0597 9.96562 12.2378 10.4719 12.3698C10.9781 12.5017 11.4875 12.5875 12 12.6271V10.8854L10.2375 10.5094L8.98125 11.8354Z" fill="white"/>
</svg>
