<svg width="20" height="20" viewBox="0 0 20 20" fill="none" xmlns="http://www.w3.org/2000/svg">
<path d="M17.5 15.8334H4.16667V2.50008C4.16667 2.27907 4.07887 2.06711 3.92259 1.91083C3.76631 1.75455 3.55435 1.66675 3.33333 1.66675C3.11232 1.66675 2.90036 1.75455 2.74408 1.91083C2.5878 2.06711 2.5 2.27907 2.5 2.50008V16.6667C2.5 16.8878 2.5878 17.0997 2.74408 17.256C2.90036 17.4123 3.11232 17.5001 3.33333 17.5001H17.5C17.721 17.5001 17.933 17.4123 18.0893 17.256C18.2455 17.0997 18.3333 16.8878 18.3333 16.6667C18.3333 16.4457 18.2455 16.2338 18.0893 16.0775C17.933 15.9212 17.721 15.8334 17.5 15.8334Z" fill="#464255"/>
<path d="M5.83337 9.16658V13.3332C5.83337 13.5543 5.92117 13.7662 6.07745 13.9225C6.23373 14.0788 6.44569 14.1666 6.66671 14.1666C6.88772 14.1666 7.09968 14.0788 7.25596 13.9225C7.41224 13.7662 7.50004 13.5543 7.50004 13.3332V9.16658C7.50004 8.94557 7.41224 8.73361 7.25596 8.57733C7.09968 8.42105 6.88772 8.33325 6.66671 8.33325C6.44569 8.33325 6.23373 8.42105 6.07745 8.57733C5.92117 8.73361 5.83337 8.94557 5.83337 9.16658Z" fill="#464255"/>
<path d="M9.16663 5.00008V13.3334C9.16663 13.5544 9.25442 13.7664 9.4107 13.9227C9.56698 14.0789 9.77895 14.1667 9.99996 14.1667C10.221 14.1667 10.4329 14.0789 10.5892 13.9227C10.7455 13.7664 10.8333 13.5544 10.8333 13.3334V5.00008C10.8333 4.77907 10.7455 4.56711 10.5892 4.41083C10.4329 4.25455 10.221 4.16675 9.99996 4.16675C9.77895 4.16675 9.56698 4.25455 9.4107 4.41083C9.25442 4.56711 9.16663 4.77907 9.16663 5.00008Z" fill="#464255"/>
<path d="M12.5 6.66658V13.3332C12.5 13.5543 12.5878 13.7662 12.7441 13.9225C12.9004 14.0788 13.1123 14.1666 13.3333 14.1666C13.5543 14.1666 13.7663 14.0788 13.9226 13.9225C14.0789 13.7662 14.1667 13.5543 14.1667 13.3332V6.66658C14.1667 6.44557 14.0789 6.23361 13.9226 6.07733C13.7663 5.92105 13.5543 5.83325 13.3333 5.83325C13.1123 5.83325 12.9004 5.92105 12.7441 6.07733C12.5878 6.23361 12.5 6.44557 12.5 6.66658Z" fill="#464255"/>
<path d="M15.8334 2.50008V13.3334C15.8334 13.5544 15.9212 13.7664 16.0775 13.9227C16.2337 14.0789 16.4457 14.1667 16.6667 14.1667C16.8877 14.1667 17.0997 14.0789 17.256 13.9227C17.4122 13.7664 17.5 13.5544 17.5 13.3334V2.50008C17.5 2.27907 17.4122 2.06711 17.256 1.91083C17.0997 1.75455 16.8877 1.66675 16.6667 1.66675C16.4457 1.66675 16.2337 1.75455 16.0775 1.91083C15.9212 2.06711 15.8334 2.27907 15.8334 2.50008Z" fill="#464255"/>
</svg>
