<svg width="20" height="20" viewBox="0 0 20 20" fill="none" xmlns="http://www.w3.org/2000/svg">
<path d="M15.9916 13.9249C16.4243 13.4084 16.6631 12.7571 16.6666 12.0833C16.6666 11.3097 16.3593 10.5679 15.8124 10.0209C15.2654 9.4739 14.5235 9.16661 13.75 9.16661H13.5166C14.2039 8.34993 14.5815 7.3173 14.5833 6.24994C14.5852 5.4804 14.3934 4.72275 14.0254 4.04688C13.6575 3.371 13.1253 2.79865 12.4779 2.3826C11.8305 1.96656 11.0888 1.72022 10.3211 1.6663C9.55347 1.61237 8.7846 1.75261 8.08541 2.07407C7.38622 2.39552 6.77922 2.88785 6.3204 3.50566C5.86158 4.12346 5.56569 4.84685 5.46004 5.60911C5.35439 6.37137 5.44237 7.14796 5.71586 7.86726C5.98935 8.58657 6.43956 9.22543 7.02496 9.72494C5.45018 10.3268 4.09498 11.3921 3.13831 12.7803C2.18164 14.1684 1.66849 15.8141 1.66663 17.4999C1.66663 17.721 1.75442 17.9329 1.9107 18.0892C2.06698 18.2455 2.27895 18.3333 2.49996 18.3333C2.72097 18.3333 2.93293 18.2455 3.08922 18.0892C3.2455 17.9329 3.33329 17.721 3.33329 17.4999C3.33329 15.7318 4.03567 14.0361 5.28591 12.7859C6.53616 11.5357 8.23185 10.8333 9.99996 10.8333H11.125C10.8809 11.33 10.7871 11.8871 10.8552 12.4363C10.9233 12.9855 11.1503 13.5029 11.5083 13.9249C10.7984 14.322 10.2071 14.9012 9.79553 15.6029C9.38393 16.3045 9.16684 17.1032 9.16663 17.9166C9.16663 18.1376 9.25442 18.3496 9.4107 18.5059C9.56698 18.6621 9.77895 18.7499 9.99996 18.7499C10.221 18.7499 10.4329 18.6621 10.5892 18.5059C10.7455 18.3496 10.8333 18.1376 10.8333 17.9166C10.8333 17.1431 11.1406 16.4012 11.6876 15.8542C12.2345 15.3072 12.9764 14.9999 13.75 14.9999C14.5235 14.9999 15.2654 15.3072 15.8124 15.8542C16.3593 16.4012 16.6666 17.1431 16.6666 17.9166C16.6666 18.1376 16.7544 18.3496 16.9107 18.5059C17.067 18.6621 17.2789 18.7499 17.5 18.7499C17.721 18.7499 17.9329 18.6621 18.0892 18.5059C18.2455 18.3496 18.3333 18.1376 18.3333 17.9166C18.3331 17.1032 18.116 16.3045 17.7044 15.6029C17.2928 14.9012 16.7016 14.322 15.9916 13.9249ZM9.99996 9.16661C9.4231 9.16661 8.85919 8.99555 8.37955 8.67506C7.8999 8.35457 7.52607 7.89905 7.30531 7.3661C7.08456 6.83315 7.0268 6.24671 7.13934 5.68093C7.25188 5.11515 7.52966 4.59545 7.93756 4.18755C8.34547 3.77964 8.86517 3.50186 9.43095 3.38932C9.99672 3.27678 10.5832 3.33454 11.1161 3.55529C11.6491 3.77605 12.1046 4.14989 12.4251 4.62953C12.7456 5.10917 12.9166 5.67308 12.9166 6.24994C12.9166 7.02349 12.6093 7.76536 12.0624 8.31234C11.5154 8.85932 10.7735 9.16661 9.99996 9.16661ZM13.75 13.3333C13.4184 13.3333 13.1005 13.2016 12.8661 12.9672C12.6317 12.7327 12.5 12.4148 12.5 12.0833C12.5021 11.7524 12.6345 11.4358 12.8685 11.2018C13.1024 10.9679 13.4191 10.8355 13.75 10.8333C14.0815 10.8333 14.3994 10.965 14.6338 11.1994C14.8683 11.4338 15 11.7518 15 12.0833C15 12.4148 14.8683 12.7327 14.6338 12.9672C14.3994 13.2016 14.0815 13.3333 13.75 13.3333Z" fill="#464255"/>
</svg>
