<svg width="259" height="23" viewBox="0 0 259 23" fill="none" xmlns="http://www.w3.org/2000/svg">
<path d="M12.3101 18C12.1661 18 12.0701 17.936 12.0221 17.808L11.0621 14.784C11.0461 14.736 11.0141 14.712 10.9661 14.712H3.79006C3.74206 14.712 3.71006 14.736 3.69406 14.784L2.73406 17.808C2.68606 17.936 2.59006 18 2.44606 18H1.15006C0.974055 18 0.910055 17.912 0.958055 17.736L6.26206 1.392C6.31006 1.264 6.40606 1.2 6.55006 1.2H8.18206C8.32606 1.2 8.42206 1.264 8.47006 1.392L13.7981 17.736L13.8221 17.832C13.8221 17.944 13.7501 18 13.6061 18H12.3101ZM4.17406 13.2C4.15806 13.232 4.15806 13.264 4.17406 13.296C4.20606 13.312 4.23806 13.32 4.27006 13.32H10.4621C10.4941 13.32 10.5181 13.312 10.5341 13.296C10.5661 13.264 10.5741 13.232 10.5581 13.2L7.43806 3.408C7.42206 3.376 7.39806 3.36 7.36606 3.36C7.33406 3.36 7.31006 3.376 7.29406 3.408L4.17406 13.2ZM23.4135 1.44C23.4135 1.28 23.4935 1.2 23.6535 1.2H24.8775C25.0375 1.2 25.1175 1.28 25.1175 1.44V17.76C25.1175 17.92 25.0375 18 24.8775 18H23.6535C23.4935 18 23.4135 17.92 23.4135 17.76V16.752C23.4135 16.72 23.3975 16.704 23.3655 16.704C23.3495 16.688 23.3255 16.696 23.2935 16.728C22.9415 17.192 22.5015 17.552 21.9735 17.808C21.4615 18.064 20.8855 18.192 20.2455 18.192C19.1255 18.192 18.1815 17.904 17.4135 17.328C16.6615 16.752 16.1415 15.968 15.8535 14.976C15.6295 14.256 15.5175 13.24 15.5175 11.928C15.5175 10.6 15.6135 9.608 15.8055 8.952C16.0935 7.928 16.6215 7.128 17.3895 6.552C18.1575 5.96 19.1095 5.664 20.2455 5.664C20.8695 5.664 21.4455 5.792 21.9735 6.048C22.5015 6.288 22.9415 6.64 23.2935 7.104C23.3255 7.136 23.3495 7.152 23.3655 7.152C23.3975 7.136 23.4135 7.112 23.4135 7.08V1.44ZM22.9815 14.856C23.1255 14.536 23.2295 14.16 23.2935 13.728C23.3575 13.296 23.3895 12.696 23.3895 11.928C23.3895 11.16 23.3575 10.56 23.2935 10.128C23.2295 9.68 23.1175 9.288 22.9575 8.952C22.7655 8.408 22.4455 7.976 21.9975 7.656C21.5655 7.32 21.0455 7.152 20.4375 7.152C19.7975 7.152 19.2455 7.312 18.7815 7.632C18.3175 7.952 17.9815 8.376 17.7735 8.904C17.5815 9.256 17.4375 9.656 17.3415 10.104C17.2615 10.536 17.2215 11.144 17.2215 11.928C17.2215 12.68 17.2535 13.272 17.3175 13.704C17.3815 14.12 17.4935 14.496 17.6535 14.832C17.8455 15.408 18.1815 15.864 18.6615 16.2C19.1575 16.536 19.7415 16.704 20.4135 16.704C21.0535 16.704 21.5895 16.536 22.0215 16.2C22.4535 15.864 22.7735 15.416 22.9815 14.856ZM40.8571 5.688C42.0571 5.688 43.0011 6.048 43.6891 6.768C44.3931 7.488 44.7451 8.472 44.7451 9.72V17.76C44.7451 17.92 44.6651 18 44.5051 18H43.3051C43.1451 18 43.0651 17.92 43.0651 17.76V10.056C43.0651 9.176 42.8091 8.48 42.2971 7.968C41.8011 7.44 41.1451 7.176 40.3291 7.176C39.4811 7.176 38.7931 7.432 38.2651 7.944C37.7531 8.456 37.4971 9.144 37.4971 10.008V17.76C37.4971 17.92 37.4171 18 37.2571 18H36.0331C35.8731 18 35.7931 17.92 35.7931 17.76V10.056C35.7931 9.176 35.5451 8.48 35.0491 7.968C34.5531 7.44 33.8891 7.176 33.0571 7.176C32.2091 7.176 31.5291 7.432 31.0171 7.944C30.5211 8.456 30.2731 9.144 30.2731 10.008V17.76C30.2731 17.92 30.1931 18 30.0331 18H28.8091C28.6491 18 28.5691 17.92 28.5691 17.76V6.096C28.5691 5.936 28.6491 5.856 28.8091 5.856H30.0331C30.1931 5.856 30.2731 5.936 30.2731 6.096V7.056C30.2731 7.088 30.2811 7.112 30.2971 7.128C30.3291 7.128 30.3611 7.112 30.3931 7.08C30.7451 6.616 31.1931 6.272 31.7371 6.048C32.2971 5.808 32.9131 5.688 33.5851 5.688C34.4171 5.688 35.1291 5.856 35.7211 6.192C36.3131 6.528 36.7611 7.016 37.0651 7.656C37.0971 7.736 37.1371 7.736 37.1851 7.656C37.5371 7 38.0331 6.512 38.6731 6.192C39.3131 5.856 40.0411 5.688 40.8571 5.688ZM49.1626 3.648C48.7786 3.648 48.4586 3.52 48.2026 3.264C47.9466 3.008 47.8186 2.688 47.8186 2.304C47.8186 1.904 47.9466 1.584 48.2026 1.344C48.4586 1.088 48.7786 0.959999 49.1626 0.959999C49.5466 0.959999 49.8666 1.088 50.1226 1.344C50.3786 1.584 50.5066 1.904 50.5066 2.304C50.5066 2.688 50.3786 3.008 50.1226 3.264C49.8666 3.52 49.5466 3.648 49.1626 3.648ZM48.4906 17.976C48.3306 17.976 48.2506 17.896 48.2506 17.736V6.072C48.2506 5.912 48.3306 5.832 48.4906 5.832H49.7146C49.8746 5.832 49.9546 5.912 49.9546 6.072V17.736C49.9546 17.896 49.8746 17.976 49.7146 17.976H48.4906ZM58.7578 5.688C60.0378 5.688 61.0538 6.064 61.8058 6.816C62.5738 7.568 62.9578 8.576 62.9578 9.84V17.76C62.9578 17.92 62.8778 18 62.7178 18H61.4938C61.3338 18 61.2538 17.92 61.2538 17.76V10.176C61.2538 9.296 60.9818 8.576 60.4378 8.016C59.9098 7.456 59.2218 7.176 58.3738 7.176C57.4938 7.176 56.7818 7.448 56.2378 7.992C55.6938 8.536 55.4218 9.248 55.4218 10.128V17.76C55.4218 17.92 55.3418 18 55.1818 18H53.9578C53.7978 18 53.7178 17.92 53.7178 17.76V6.096C53.7178 5.936 53.7978 5.856 53.9578 5.856H55.1818C55.3418 5.856 55.4218 5.936 55.4218 6.096V7.128C55.4218 7.16 55.4298 7.184 55.4458 7.2C55.4778 7.216 55.5018 7.208 55.5178 7.176C56.2218 6.184 57.3018 5.688 58.7578 5.688ZM74.84 5.664C76.28 5.664 77.392 6.032 78.176 6.768C78.96 7.504 79.352 8.48 79.352 9.696V17.76C79.352 17.92 79.272 18 79.112 18H77.888C77.728 18 77.648 17.92 77.648 17.76V16.776C77.648 16.744 77.632 16.72 77.6 16.704C77.584 16.688 77.56 16.696 77.528 16.728C77.128 17.208 76.608 17.576 75.968 17.832C75.328 18.072 74.616 18.192 73.832 18.192C72.696 18.192 71.744 17.904 70.976 17.328C70.208 16.752 69.824 15.872 69.824 14.688C69.824 13.488 70.256 12.544 71.12 11.856C72 11.152 73.216 10.8 74.768 10.8H77.552C77.616 10.8 77.648 10.768 77.648 10.704V9.792C77.648 8.976 77.416 8.336 76.952 7.872C76.504 7.392 75.8 7.152 74.84 7.152C74.072 7.152 73.448 7.304 72.968 7.608C72.488 7.896 72.192 8.304 72.08 8.832C72.032 8.992 71.936 9.064 71.792 9.048L70.496 8.88C70.32 8.848 70.248 8.784 70.28 8.688C70.408 7.792 70.888 7.064 71.72 6.504C72.552 5.944 73.592 5.664 74.84 5.664ZM74.168 16.728C75.112 16.728 75.928 16.496 76.616 16.032C77.304 15.552 77.648 14.912 77.648 14.112V12.24C77.648 12.176 77.616 12.144 77.552 12.144H75.032C73.976 12.144 73.128 12.36 72.488 12.792C71.848 13.224 71.528 13.824 71.528 14.592C71.528 15.296 71.768 15.832 72.248 16.2C72.744 16.552 73.384 16.728 74.168 16.728ZM90.0238 1.44C90.0238 1.28 90.1038 1.2 90.2638 1.2H91.4878C91.6478 1.2 91.7278 1.28 91.7278 1.44V17.76C91.7278 17.92 91.6478 18 91.4878 18H90.2638C90.1038 18 90.0238 17.92 90.0238 17.76V16.752C90.0238 16.72 90.0078 16.704 89.9758 16.704C89.9598 16.688 89.9358 16.696 89.9038 16.728C89.5518 17.192 89.1118 17.552 88.5838 17.808C88.0718 18.064 87.4958 18.192 86.8558 18.192C85.7358 18.192 84.7918 17.904 84.0238 17.328C83.2718 16.752 82.7518 15.968 82.4638 14.976C82.2398 14.256 82.1278 13.24 82.1278 11.928C82.1278 10.6 82.2238 9.608 82.4158 8.952C82.7038 7.928 83.2318 7.128 83.9998 6.552C84.7678 5.96 85.7198 5.664 86.8558 5.664C87.4798 5.664 88.0558 5.792 88.5838 6.048C89.1118 6.288 89.5518 6.64 89.9038 7.104C89.9358 7.136 89.9598 7.152 89.9758 7.152C90.0078 7.136 90.0238 7.112 90.0238 7.08V1.44ZM89.5918 14.856C89.7358 14.536 89.8398 14.16 89.9038 13.728C89.9678 13.296 89.9998 12.696 89.9998 11.928C89.9998 11.16 89.9678 10.56 89.9038 10.128C89.8398 9.68 89.7278 9.288 89.5678 8.952C89.3758 8.408 89.0558 7.976 88.6078 7.656C88.1758 7.32 87.6558 7.152 87.0478 7.152C86.4078 7.152 85.8558 7.312 85.3918 7.632C84.9278 7.952 84.5918 8.376 84.3838 8.904C84.1918 9.256 84.0478 9.656 83.9518 10.104C83.8718 10.536 83.8318 11.144 83.8318 11.928C83.8318 12.68 83.8638 13.272 83.9278 13.704C83.9918 14.12 84.1038 14.496 84.2638 14.832C84.4558 15.408 84.7918 15.864 85.2718 16.2C85.7678 16.536 86.3518 16.704 87.0238 16.704C87.6638 16.704 88.1998 16.536 88.6318 16.2C89.0638 15.864 89.3838 15.416 89.5918 14.856ZM102.715 1.44C102.715 1.28 102.795 1.2 102.955 1.2H104.179C104.339 1.2 104.419 1.28 104.419 1.44V17.76C104.419 17.92 104.339 18 104.179 18H102.955C102.795 18 102.715 17.92 102.715 17.76V16.752C102.715 16.72 102.699 16.704 102.667 16.704C102.651 16.688 102.627 16.696 102.595 16.728C102.243 17.192 101.803 17.552 101.275 17.808C100.763 18.064 100.187 18.192 99.5474 18.192C98.4274 18.192 97.4834 17.904 96.7154 17.328C95.9634 16.752 95.4434 15.968 95.1554 14.976C94.9314 14.256 94.8194 13.24 94.8194 11.928C94.8194 10.6 94.9154 9.608 95.1074 8.952C95.3954 7.928 95.9234 7.128 96.6914 6.552C97.4594 5.96 98.4114 5.664 99.5474 5.664C100.171 5.664 100.747 5.792 101.275 6.048C101.803 6.288 102.243 6.64 102.595 7.104C102.627 7.136 102.651 7.152 102.667 7.152C102.699 7.136 102.715 7.112 102.715 7.08V1.44ZM102.283 14.856C102.427 14.536 102.531 14.16 102.595 13.728C102.659 13.296 102.691 12.696 102.691 11.928C102.691 11.16 102.659 10.56 102.595 10.128C102.531 9.68 102.419 9.288 102.259 8.952C102.067 8.408 101.747 7.976 101.299 7.656C100.867 7.32 100.347 7.152 99.7394 7.152C99.0994 7.152 98.5474 7.312 98.0834 7.632C97.6194 7.952 97.2834 8.376 97.0754 8.904C96.8834 9.256 96.7394 9.656 96.6434 10.104C96.5634 10.536 96.5234 11.144 96.5234 11.928C96.5234 12.68 96.5554 13.272 96.6194 13.704C96.6834 14.12 96.7954 14.496 96.9554 14.832C97.1474 15.408 97.4834 15.864 97.9634 16.2C98.4594 16.536 99.0434 16.704 99.7154 16.704C100.355 16.704 100.891 16.536 101.323 16.2C101.755 15.864 102.075 15.416 102.283 14.856ZM117.183 9.888C117.247 10.336 117.279 10.896 117.279 11.568V12.336C117.279 12.496 117.199 12.576 117.039 12.576H109.287C109.223 12.576 109.191 12.608 109.191 12.672C109.223 13.552 109.271 14.12 109.335 14.376C109.511 15.096 109.887 15.664 110.463 16.08C111.039 16.496 111.775 16.704 112.671 16.704C113.343 16.704 113.935 16.552 114.447 16.248C114.959 15.944 115.359 15.512 115.647 14.952C115.743 14.808 115.855 14.776 115.983 14.856L116.919 15.408C117.047 15.488 117.079 15.6 117.015 15.744C116.615 16.512 116.015 17.12 115.215 17.568C114.415 18 113.495 18.216 112.455 18.216C111.319 18.2 110.367 17.928 109.599 17.4C108.831 16.872 108.279 16.136 107.943 15.192C107.655 14.424 107.511 13.32 107.511 11.88C107.511 11.208 107.519 10.664 107.535 10.248C107.567 9.816 107.631 9.432 107.727 9.096C107.999 8.056 108.543 7.224 109.359 6.6C110.191 5.976 111.191 5.664 112.359 5.664C113.815 5.664 114.935 6.032 115.719 6.768C116.503 7.504 116.991 8.544 117.183 9.888ZM112.359 7.152C111.575 7.152 110.919 7.36 110.391 7.776C109.879 8.176 109.543 8.72 109.383 9.408C109.287 9.744 109.223 10.288 109.191 11.04C109.191 11.104 109.223 11.136 109.287 11.136H115.503C115.567 11.136 115.599 11.104 115.599 11.04C115.567 10.32 115.519 9.808 115.455 9.504C115.279 8.784 114.919 8.216 114.375 7.8C113.847 7.368 113.175 7.152 112.359 7.152ZM127.794 1.44C127.794 1.28 127.874 1.2 128.034 1.2H129.258C129.418 1.2 129.498 1.28 129.498 1.44V17.76C129.498 17.92 129.418 18 129.258 18H128.034C127.874 18 127.794 17.92 127.794 17.76V16.752C127.794 16.72 127.778 16.704 127.746 16.704C127.73 16.688 127.706 16.696 127.674 16.728C127.322 17.192 126.882 17.552 126.354 17.808C125.842 18.064 125.266 18.192 124.626 18.192C123.506 18.192 122.562 17.904 121.794 17.328C121.042 16.752 120.522 15.968 120.234 14.976C120.01 14.256 119.898 13.24 119.898 11.928C119.898 10.6 119.994 9.608 120.186 8.952C120.474 7.928 121.002 7.128 121.77 6.552C122.538 5.96 123.49 5.664 124.626 5.664C125.25 5.664 125.826 5.792 126.354 6.048C126.882 6.288 127.322 6.64 127.674 7.104C127.706 7.136 127.73 7.152 127.746 7.152C127.778 7.136 127.794 7.112 127.794 7.08V1.44ZM127.362 14.856C127.506 14.536 127.61 14.16 127.674 13.728C127.738 13.296 127.77 12.696 127.77 11.928C127.77 11.16 127.738 10.56 127.674 10.128C127.61 9.68 127.498 9.288 127.338 8.952C127.146 8.408 126.826 7.976 126.378 7.656C125.946 7.32 125.426 7.152 124.818 7.152C124.178 7.152 123.626 7.312 123.162 7.632C122.698 7.952 122.362 8.376 122.154 8.904C121.962 9.256 121.818 9.656 121.722 10.104C121.642 10.536 121.602 11.144 121.602 11.928C121.602 12.68 121.634 13.272 121.698 13.704C121.762 14.12 121.874 14.496 122.034 14.832C122.226 15.408 122.562 15.864 123.042 16.2C123.538 16.536 124.122 16.704 124.794 16.704C125.434 16.704 125.97 16.536 126.402 16.2C126.834 15.864 127.154 15.416 127.362 14.856ZM141.328 18.12C140.432 18.12 139.632 17.976 138.928 17.688C138.24 17.4 137.704 17.016 137.32 16.536C136.952 16.056 136.768 15.52 136.768 14.928V14.64C136.768 14.48 136.848 14.4 137.008 14.4H138.16C138.32 14.4 138.4 14.48 138.4 14.64V14.832C138.4 15.36 138.672 15.824 139.216 16.224C139.776 16.608 140.472 16.8 141.304 16.8C142.136 16.8 142.808 16.616 143.32 16.248C143.832 15.864 144.088 15.384 144.088 14.808C144.088 14.408 143.952 14.08 143.68 13.824C143.424 13.568 143.112 13.368 142.744 13.224C142.392 13.08 141.84 12.896 141.088 12.672C140.192 12.416 139.456 12.16 138.88 11.904C138.304 11.648 137.816 11.296 137.416 10.848C137.032 10.384 136.84 9.8 136.84 9.096C136.84 8.072 137.24 7.256 138.04 6.648C138.84 6.04 139.896 5.736 141.208 5.736C142.088 5.736 142.864 5.88 143.536 6.168C144.224 6.456 144.752 6.856 145.12 7.368C145.488 7.864 145.672 8.424 145.672 9.048V9.12C145.672 9.28 145.592 9.36 145.432 9.36H144.304C144.144 9.36 144.064 9.28 144.064 9.12V9.048C144.064 8.504 143.8 8.048 143.272 7.68C142.76 7.312 142.064 7.128 141.184 7.128C140.368 7.128 139.712 7.296 139.216 7.632C138.72 7.952 138.472 8.4 138.472 8.976C138.472 9.52 138.712 9.936 139.192 10.224C139.672 10.512 140.416 10.8 141.424 11.088C142.352 11.36 143.104 11.616 143.68 11.856C144.256 12.096 144.752 12.448 145.168 12.912C145.584 13.36 145.792 13.952 145.792 14.688C145.792 15.728 145.384 16.56 144.568 17.184C143.752 17.808 142.672 18.12 141.328 18.12ZM155.833 6.096C155.833 5.936 155.913 5.856 156.073 5.856H157.297C157.457 5.856 157.537 5.936 157.537 6.096V17.76C157.537 17.92 157.457 18 157.297 18H156.073C155.913 18 155.833 17.92 155.833 17.76V16.728C155.833 16.696 155.817 16.672 155.785 16.656C155.753 16.64 155.729 16.648 155.713 16.68C155.041 17.672 153.977 18.168 152.521 18.168C151.753 18.168 151.041 18.016 150.385 17.712C149.745 17.392 149.233 16.936 148.849 16.344C148.481 15.752 148.297 15.04 148.297 14.208V6.096C148.297 5.936 148.377 5.856 148.537 5.856H149.761C149.921 5.856 150.001 5.936 150.001 6.096V13.704C150.001 14.616 150.257 15.344 150.769 15.888C151.281 16.416 151.977 16.68 152.857 16.68C153.769 16.68 154.489 16.408 155.017 15.864C155.561 15.32 155.833 14.6 155.833 13.704V6.096ZM165.53 18.192C164.378 18.192 163.386 17.896 162.554 17.304C161.738 16.696 161.178 15.88 160.874 14.856C160.666 14.152 160.562 13.16 160.562 11.88C160.562 10.728 160.666 9.752 160.874 8.952C161.162 7.96 161.722 7.168 162.554 6.576C163.386 5.968 164.378 5.664 165.53 5.664C166.698 5.664 167.706 5.96 168.554 6.552C169.418 7.144 169.978 7.88 170.234 8.76C170.314 9.048 170.362 9.288 170.378 9.48V9.528C170.378 9.64 170.306 9.712 170.162 9.744L168.962 9.912H168.914C168.802 9.912 168.73 9.84 168.698 9.696L168.626 9.336C168.482 8.728 168.13 8.216 167.57 7.8C167.01 7.368 166.33 7.152 165.53 7.152C164.73 7.152 164.058 7.368 163.514 7.8C162.986 8.216 162.642 8.776 162.482 9.48C162.338 10.088 162.266 10.896 162.266 11.904C162.266 12.96 162.338 13.776 162.482 14.352C162.642 15.072 162.986 15.648 163.514 16.08C164.058 16.496 164.73 16.704 165.53 16.704C166.314 16.704 166.986 16.504 167.546 16.104C168.122 15.688 168.482 15.16 168.626 14.52V14.424L168.65 14.328C168.666 14.168 168.762 14.104 168.938 14.136L170.114 14.328C170.274 14.36 170.346 14.448 170.33 14.592L170.234 15.072C169.994 16 169.442 16.752 168.578 17.328C167.714 17.904 166.698 18.192 165.53 18.192ZM177.518 18.192C176.366 18.192 175.374 17.896 174.542 17.304C173.726 16.696 173.166 15.88 172.862 14.856C172.654 14.152 172.55 13.16 172.55 11.88C172.55 10.728 172.654 9.752 172.862 8.952C173.15 7.96 173.71 7.168 174.542 6.576C175.374 5.968 176.366 5.664 177.518 5.664C178.686 5.664 179.694 5.96 180.542 6.552C181.406 7.144 181.966 7.88 182.222 8.76C182.302 9.048 182.35 9.288 182.366 9.48V9.528C182.366 9.64 182.294 9.712 182.15 9.744L180.95 9.912H180.902C180.79 9.912 180.718 9.84 180.686 9.696L180.614 9.336C180.47 8.728 180.118 8.216 179.558 7.8C178.998 7.368 178.318 7.152 177.518 7.152C176.718 7.152 176.046 7.368 175.502 7.8C174.974 8.216 174.63 8.776 174.47 9.48C174.326 10.088 174.254 10.896 174.254 11.904C174.254 12.96 174.326 13.776 174.47 14.352C174.63 15.072 174.974 15.648 175.502 16.08C176.046 16.496 176.718 16.704 177.518 16.704C178.302 16.704 178.974 16.504 179.534 16.104C180.11 15.688 180.47 15.16 180.614 14.52V14.424L180.638 14.328C180.654 14.168 180.75 14.104 180.926 14.136L182.102 14.328C182.262 14.36 182.334 14.448 182.318 14.592L182.222 15.072C181.982 16 181.43 16.752 180.566 17.328C179.702 17.904 178.686 18.192 177.518 18.192ZM194.235 9.888C194.299 10.336 194.331 10.896 194.331 11.568V12.336C194.331 12.496 194.251 12.576 194.091 12.576H186.339C186.275 12.576 186.243 12.608 186.243 12.672C186.275 13.552 186.323 14.12 186.387 14.376C186.563 15.096 186.939 15.664 187.515 16.08C188.091 16.496 188.827 16.704 189.723 16.704C190.395 16.704 190.987 16.552 191.499 16.248C192.011 15.944 192.411 15.512 192.699 14.952C192.795 14.808 192.907 14.776 193.035 14.856L193.971 15.408C194.099 15.488 194.131 15.6 194.067 15.744C193.667 16.512 193.067 17.12 192.267 17.568C191.467 18 190.547 18.216 189.507 18.216C188.371 18.2 187.419 17.928 186.651 17.4C185.883 16.872 185.331 16.136 184.995 15.192C184.707 14.424 184.563 13.32 184.563 11.88C184.563 11.208 184.571 10.664 184.587 10.248C184.619 9.816 184.683 9.432 184.779 9.096C185.051 8.056 185.595 7.224 186.411 6.6C187.243 5.976 188.243 5.664 189.411 5.664C190.867 5.664 191.987 6.032 192.771 6.768C193.555 7.504 194.043 8.544 194.235 9.888ZM189.411 7.152C188.627 7.152 187.971 7.36 187.443 7.776C186.931 8.176 186.595 8.72 186.435 9.408C186.339 9.744 186.275 10.288 186.243 11.04C186.243 11.104 186.275 11.136 186.339 11.136H192.555C192.619 11.136 192.651 11.104 192.651 11.04C192.619 10.32 192.571 9.808 192.507 9.504C192.331 8.784 191.971 8.216 191.427 7.8C190.899 7.368 190.227 7.152 189.411 7.152ZM201.083 18.12C200.187 18.12 199.387 17.976 198.683 17.688C197.995 17.4 197.459 17.016 197.075 16.536C196.707 16.056 196.523 15.52 196.523 14.928V14.64C196.523 14.48 196.603 14.4 196.763 14.4H197.915C198.075 14.4 198.155 14.48 198.155 14.64V14.832C198.155 15.36 198.427 15.824 198.971 16.224C199.531 16.608 200.227 16.8 201.059 16.8C201.891 16.8 202.563 16.616 203.075 16.248C203.587 15.864 203.843 15.384 203.843 14.808C203.843 14.408 203.707 14.08 203.435 13.824C203.179 13.568 202.867 13.368 202.499 13.224C202.147 13.08 201.595 12.896 200.843 12.672C199.947 12.416 199.211 12.16 198.635 11.904C198.059 11.648 197.571 11.296 197.171 10.848C196.787 10.384 196.595 9.8 196.595 9.096C196.595 8.072 196.995 7.256 197.795 6.648C198.595 6.04 199.651 5.736 200.963 5.736C201.843 5.736 202.619 5.88 203.291 6.168C203.979 6.456 204.507 6.856 204.875 7.368C205.243 7.864 205.427 8.424 205.427 9.048V9.12C205.427 9.28 205.347 9.36 205.187 9.36H204.059C203.899 9.36 203.819 9.28 203.819 9.12V9.048C203.819 8.504 203.555 8.048 203.027 7.68C202.515 7.312 201.819 7.128 200.939 7.128C200.123 7.128 199.467 7.296 198.971 7.632C198.475 7.952 198.227 8.4 198.227 8.976C198.227 9.52 198.467 9.936 198.947 10.224C199.427 10.512 200.171 10.8 201.179 11.088C202.107 11.36 202.859 11.616 203.435 11.856C204.011 12.096 204.507 12.448 204.923 12.912C205.339 13.36 205.547 13.952 205.547 14.688C205.547 15.728 205.139 16.56 204.323 17.184C203.507 17.808 202.427 18.12 201.083 18.12ZM211.876 18.12C210.98 18.12 210.18 17.976 209.476 17.688C208.788 17.4 208.252 17.016 207.868 16.536C207.5 16.056 207.316 15.52 207.316 14.928V14.64C207.316 14.48 207.396 14.4 207.556 14.4H208.708C208.868 14.4 208.948 14.48 208.948 14.64V14.832C208.948 15.36 209.22 15.824 209.764 16.224C210.324 16.608 211.02 16.8 211.852 16.8C212.684 16.8 213.356 16.616 213.868 16.248C214.38 15.864 214.636 15.384 214.636 14.808C214.636 14.408 214.5 14.08 214.228 13.824C213.972 13.568 213.66 13.368 213.292 13.224C212.94 13.08 212.388 12.896 211.636 12.672C210.74 12.416 210.004 12.16 209.428 11.904C208.852 11.648 208.364 11.296 207.964 10.848C207.58 10.384 207.388 9.8 207.388 9.096C207.388 8.072 207.788 7.256 208.588 6.648C209.388 6.04 210.444 5.736 211.756 5.736C212.636 5.736 213.412 5.88 214.084 6.168C214.772 6.456 215.3 6.856 215.668 7.368C216.036 7.864 216.22 8.424 216.22 9.048V9.12C216.22 9.28 216.14 9.36 215.98 9.36H214.852C214.692 9.36 214.612 9.28 214.612 9.12V9.048C214.612 8.504 214.348 8.048 213.82 7.68C213.308 7.312 212.612 7.128 211.732 7.128C210.916 7.128 210.26 7.296 209.764 7.632C209.268 7.952 209.02 8.4 209.02 8.976C209.02 9.52 209.26 9.936 209.74 10.224C210.22 10.512 210.964 10.8 211.972 11.088C212.9 11.36 213.652 11.616 214.228 11.856C214.804 12.096 215.3 12.448 215.716 12.912C216.132 13.36 216.34 13.952 216.34 14.688C216.34 15.728 215.932 16.56 215.116 17.184C214.3 17.808 213.22 18.12 211.876 18.12ZM223.813 2.688C222.933 2.688 222.333 2.888 222.013 3.288C221.693 3.672 221.533 4.336 221.533 5.28V5.76C221.533 5.824 221.565 5.856 221.629 5.856H224.317C224.477 5.856 224.557 5.936 224.557 6.096V7.176C224.557 7.336 224.477 7.416 224.317 7.416H221.629C221.565 7.416 221.533 7.448 221.533 7.512V17.76C221.533 17.92 221.453 18 221.293 18H220.093C219.933 18 219.853 17.92 219.853 17.76V7.512C219.853 7.448 219.821 7.416 219.757 7.416H218.149C217.989 7.416 217.909 7.336 217.909 7.176V6.096C217.909 5.936 217.989 5.856 218.149 5.856H219.757C219.821 5.856 219.853 5.824 219.853 5.76V5.184C219.853 4.192 219.965 3.416 220.189 2.856C220.413 2.28 220.797 1.864 221.341 1.608C221.901 1.336 222.677 1.2 223.669 1.2H224.365C224.525 1.2 224.605 1.28 224.605 1.44V2.448C224.605 2.608 224.525 2.688 224.365 2.688H223.813ZM234.502 6.096C234.502 5.936 234.582 5.856 234.742 5.856H235.966C236.126 5.856 236.206 5.936 236.206 6.096V17.76C236.206 17.92 236.126 18 235.966 18H234.742C234.582 18 234.502 17.92 234.502 17.76V16.728C234.502 16.696 234.486 16.672 234.454 16.656C234.422 16.64 234.398 16.648 234.382 16.68C233.71 17.672 232.646 18.168 231.19 18.168C230.422 18.168 229.71 18.016 229.054 17.712C228.414 17.392 227.902 16.936 227.518 16.344C227.15 15.752 226.966 15.04 226.966 14.208V6.096C226.966 5.936 227.046 5.856 227.206 5.856H228.43C228.59 5.856 228.67 5.936 228.67 6.096V13.704C228.67 14.616 228.926 15.344 229.438 15.888C229.95 16.416 230.646 16.68 231.526 16.68C232.438 16.68 233.158 16.408 233.686 15.864C234.23 15.32 234.502 14.6 234.502 13.704V6.096ZM239.855 18C239.695 18 239.615 17.92 239.615 17.76V1.44C239.615 1.28 239.695 1.2 239.855 1.2H241.079C241.239 1.2 241.319 1.28 241.319 1.44V17.76C241.319 17.92 241.239 18 241.079 18H239.855ZM244.976 18C244.816 18 244.736 17.92 244.736 17.76V1.44C244.736 1.28 244.816 1.2 244.976 1.2H246.2C246.36 1.2 246.44 1.28 246.44 1.44V17.76C246.44 17.92 246.36 18 246.2 18H244.976ZM249.306 22.8C249.194 22.8 249.138 22.72 249.138 22.56V21.6C249.138 21.44 249.218 21.36 249.378 21.36H249.474C250.098 21.344 250.578 21.248 250.914 21.072C251.266 20.912 251.562 20.6 251.802 20.136C252.058 19.688 252.33 19 252.618 18.072C252.65 18.008 252.65 17.96 252.618 17.928L248.562 6.12L248.538 6.024C248.538 5.912 248.61 5.856 248.754 5.856H250.026C250.17 5.856 250.266 5.92 250.314 6.048L253.434 15.744C253.45 15.776 253.474 15.792 253.506 15.792C253.538 15.792 253.562 15.776 253.578 15.744L256.65 6.048C256.698 5.92 256.794 5.856 256.938 5.856H258.186C258.362 5.856 258.426 5.944 258.378 6.12L253.938 19.056C253.554 20.128 253.194 20.92 252.858 21.432C252.522 21.944 252.098 22.296 251.586 22.488C251.09 22.696 250.386 22.8 249.474 22.8H249.306Z" fill="black"/>
</svg>
