<svg width="80" height="80" viewBox="0 0 80 80" fill="none" xmlns="http://www.w3.org/2000/svg">
<mask id="mask0_2_849" style="mask-type:alpha" maskUnits="userSpaceOnUse" x="0" y="0" width="80" height="80">
<rect width="80" height="80" fill="#D9D9D9"/>
</mask>
<g mask="url(#mask0_2_849)">
<path d="M60 69.9997H23.3333V26.6663L46.6667 3.33301L50.8333 7.49967C51.2222 7.88856 51.5417 8.41634 51.7917 9.08301C52.0417 9.74967 52.1667 10.3886 52.1667 10.9997V12.1663L48.5 26.6663H70C71.7778 26.6663 73.3333 27.333 74.6667 28.6663C76 29.9997 76.6667 31.5552 76.6667 33.333V39.9997C76.6667 40.3886 76.6111 40.8052 76.5 41.2497C76.3889 41.6941 76.2778 42.1108 76.1667 42.4997L66.1667 65.9997C65.6667 67.1108 64.8333 68.0552 63.6667 68.833C62.5 69.6108 61.2778 69.9997 60 69.9997ZM30 63.333H60L70 39.9997V33.333H40L44.5 14.9997L30 29.4997V63.333ZM23.3333 26.6663V33.333H13.3333V63.333H23.3333V69.9997H6.66666V26.6663H23.3333Z" fill="#4CAC3E"/>
</g>
</svg>
