<svg width="34" height="20" viewBox="0 0 34 20" fill="none" xmlns="http://www.w3.org/2000/svg">
<path d="M8.53292 20.0001C6.23595 20.0001 4.27343 19.3439 2.64536 18.0314C1.01728 16.7189 0.203247 15.1147 0.203247 13.2189C0.203247 11.5939 0.796421 10.146 1.98277 8.87512C3.16912 7.60429 4.72146 6.79179 6.63981 6.43762C7.27085 4.52096 8.53292 2.96887 10.426 1.78137C12.3191 0.593872 14.4647 0.00012207 16.8626 0.00012207C19.8158 0.00012207 22.3211 0.849081 24.3782 2.547C26.4354 4.24491 27.464 6.31262 27.464 8.75012C29.2057 8.91679 30.6507 9.53658 31.7992 10.6095C32.9477 11.6824 33.5219 12.9376 33.5219 14.3751C33.5219 15.9376 32.8593 17.2657 31.5342 18.3595C30.209 19.4532 28.5999 20.0001 26.7067 20.0001H18.3771C17.5441 20.0001 16.831 19.7553 16.2379 19.2657C15.6447 18.7762 15.3481 18.1876 15.3481 17.5001V11.0626L12.9249 13.0001L10.8046 11.2501L16.8626 6.25012L22.9205 11.2501L20.8003 13.0001L18.3771 11.0626V17.5001H26.7067C27.7669 17.5001 28.663 17.198 29.395 16.5939C30.127 15.9897 30.493 15.2501 30.493 14.3751C30.493 13.5001 30.127 12.7605 29.395 12.1564C28.663 11.5522 27.7669 11.2501 26.7067 11.2501H24.435V8.75012C24.435 7.02096 23.6967 5.547 22.2201 4.32825C20.7435 3.1095 18.9576 2.50012 16.8626 2.50012C14.7676 2.50012 12.9817 3.1095 11.5051 4.32825C10.0285 5.547 9.29016 7.02096 9.29016 8.75012H8.53292C7.06892 8.75012 5.81947 9.17721 4.78457 10.0314C3.74967 10.8855 3.23222 11.9168 3.23222 13.1251C3.23222 14.3335 3.74967 15.3647 4.78457 16.2189C5.81947 17.073 7.06892 17.5001 8.53292 17.5001H12.3191V20.0001H8.53292Z" fill="#1C1B1F"/>
</svg>
