<svg width="22" height="23" viewBox="0 0 22 23" fill="none" xmlns="http://www.w3.org/2000/svg">
<path d="M1.66666 20.3333H8.66666C8.66666 20.9522 8.91249 21.5457 9.35008 21.9832C9.78766 22.4208 10.3812 22.6667 11 22.6667C11.6188 22.6667 12.2123 22.4208 12.6499 21.9832C13.0875 21.5457 13.3333 20.9522 13.3333 20.3333H20.3333C20.6427 20.3333 20.9395 20.2104 21.1583 19.9916C21.3771 19.7728 21.5 19.4761 21.5 19.1667C21.5 18.8572 21.3771 18.5605 21.1583 18.3417C20.9395 18.1229 20.6427 18 20.3333 18V9.83333C20.3333 7.35798 19.35 4.98401 17.5997 3.23367C15.8493 1.48333 13.4753 0.5 11 0.5C8.52464 0.5 6.15067 1.48333 4.40033 3.23367C2.64999 4.98401 1.66666 7.35798 1.66666 9.83333V18C1.35724 18 1.06049 18.1229 0.841701 18.3417C0.622909 18.5605 0.499992 18.8572 0.499992 19.1667C0.499992 19.4761 0.622909 19.7728 0.841701 19.9916C1.06049 20.2104 1.35724 20.3333 1.66666 20.3333ZM3.99999 9.83333C3.99999 7.97682 4.73749 6.19634 6.05024 4.88359C7.363 3.57083 9.14348 2.83333 11 2.83333C12.8565 2.83333 14.637 3.57083 15.9497 4.88359C17.2625 6.19634 18 7.97682 18 9.83333V18H3.99999V9.83333Z" fill="#2D9CDB"/>
</svg>
