<svg width="84" height="84" viewBox="0 0 84 84" fill="none" xmlns="http://www.w3.org/2000/svg">
<path d="M26.9999 62.834L41.9999 47.834L56.9999 62.834L62.8333 57.0007L47.8333 42.0007L62.8333 27.0007L56.9999 21.1673L41.9999 36.1673L26.9999 21.1673L21.1666 27.0007L36.1666 42.0007L21.1666 57.0007L26.9999 62.834ZM41.9999 83.6673C36.236 83.6673 30.8194 82.5736 25.7499 80.3861C20.6805 78.1986 16.2708 75.2298 12.5208 71.4798C8.77075 67.7298 5.802 63.3201 3.6145 58.2507C1.427 53.1812 0.333252 47.7645 0.333252 42.0007C0.333252 36.2368 1.427 30.8201 3.6145 25.7507C5.802 20.6812 8.77075 16.2715 12.5208 12.5215C16.2708 8.77148 20.6805 5.80273 25.7499 3.61523C30.8194 1.42773 36.236 0.333984 41.9999 0.333984C47.7638 0.333984 53.1805 1.42773 58.2499 3.61523C63.3194 5.80273 67.7291 8.77148 71.4791 12.5215C75.2291 16.2715 78.1978 20.6812 80.3853 25.7507C82.5728 30.8201 83.6666 36.2368 83.6666 42.0007C83.6666 47.7645 82.5728 53.1812 80.3853 58.2507C78.1978 63.3201 75.2291 67.7298 71.4791 71.4798C67.7291 75.2298 63.3194 78.1986 58.2499 80.3861C53.1805 82.5736 47.7638 83.6673 41.9999 83.6673ZM41.9999 75.334C51.3055 75.334 59.1874 72.1048 65.6458 65.6465C72.1041 59.1882 75.3333 51.3062 75.3333 42.0007C75.3333 32.6951 72.1041 24.8132 65.6458 18.3548C59.1874 11.8965 51.3055 8.66732 41.9999 8.66732C32.6944 8.66732 24.8124 11.8965 18.3541 18.3548C11.8958 24.8132 8.66659 32.6951 8.66659 42.0007C8.66659 51.3062 11.8958 59.1882 18.3541 65.6465C24.8124 72.1048 32.6944 75.334 41.9999 75.334Z" fill="#FF0000"/>
</svg>
