<svg width="68" height="70" viewBox="0 0 68 70" fill="none" xmlns="http://www.w3.org/2000/svg">
<path d="M11 70V54.95C7.675 51.9167 5.09375 48.3729 3.25625 44.3188C1.41875 40.2646 0.5 35.9917 0.5 31.5C0.5 22.75 3.5625 15.3125 9.6875 9.1875C15.8125 3.0625 23.25 0 32 0C39.2917 0 45.7521 2.14375 51.3813 6.43125C57.0104 10.7188 60.6708 16.3042 62.3625 23.1875L66.9125 41.125C67.2042 42.2333 67 43.2396 66.3 44.1437C65.6 45.0479 64.6667 45.5 63.5 45.5H56.5V56C56.5 57.925 55.8146 59.5729 54.4438 60.9438C53.0729 62.3146 51.425 63 49.5 63H42.5V70H35.5V56H49.5V38.5H58.95L55.625 24.9375C54.2833 19.6292 51.425 15.3125 47.05 11.9875C42.675 8.6625 37.6583 7 32 7C25.2333 7 19.4583 9.3625 14.675 14.0875C9.89167 18.8125 7.5 24.5583 7.5 31.325C7.5 34.825 8.21458 38.15 9.64375 41.3C11.0729 44.45 13.1 47.25 15.725 49.7L18 51.8V70H11ZM32 49C32.9917 49 33.8229 48.6646 34.4938 47.9938C35.1646 47.3229 35.5 46.4917 35.5 45.5C35.5 44.5083 35.1646 43.6771 34.4938 43.0063C33.8229 42.3354 32.9917 42 32 42C31.0083 42 30.1771 42.3354 29.5063 43.0063C28.8354 43.6771 28.5 44.5083 28.5 45.5C28.5 46.4917 28.8354 47.3229 29.5063 47.9938C30.1771 48.6646 31.0083 49 32 49ZM29.375 37.8H34.7125C34.7125 36.3417 34.9021 35.1604 35.2812 34.2563C35.6604 33.3521 36.4333 32.2583 37.6 30.975C38.65 29.8083 39.6708 28.6271 40.6625 27.4312C41.6542 26.2354 42.15 24.675 42.15 22.75C42.15 20.3 41.2021 18.2292 39.3063 16.5375C37.4104 14.8458 35.0625 14 32.2625 14C29.9292 14 27.8146 14.6708 25.9188 16.0125C24.0229 17.3542 22.6958 19.1042 21.9375 21.2625L26.75 23.275C27.1583 21.9917 27.8729 20.9563 28.8938 20.1688C29.9146 19.3813 31.0375 18.9875 32.2625 18.9875C33.5458 18.9875 34.6104 19.3375 35.4562 20.0375C36.3021 20.7375 36.725 21.6417 36.725 22.75C36.725 23.975 36.3604 25.0688 35.6313 26.0312C34.9021 26.9937 34.0417 27.9708 33.05 28.9625C31.8833 30.1875 30.9792 31.4125 30.3375 32.6375C29.6958 33.8625 29.375 35.5833 29.375 37.8Z" fill="#4CAC3E"/>
</svg>
